<?xml version="1.0" standalone="no"?>
<!DOCTYPE svg PUBLIC "-//W3C//DTD SVG 20010904//EN"
 "http://www.w3.org/TR/2001/REC-SVG-20010904/DTD/svg10.dtd">
<svg version="1.0" xmlns="http://www.w3.org/2000/svg"
 width="211.000000pt" height="211.000000pt" viewBox="0 0 211.000000 211.000000"
 preserveAspectRatio="xMidYMid meet">
<metadata>
Created by potrace 1.14, written by Peter Selinger 2001-2017
</metadata>
<g transform="translate(0.000000,211.000000) scale(0.100000,-0.100000)"
fill="#000000" stroke="none">
<path d="M461 1776 c-5 -6 -14 -31 -21 -54 -10 -39 -9 -45 7 -58 22 -17 36
-17 51 -2 7 7 12 9 12 5 0 -19 39 31 42 53 2 14 7 30 11 36 4 7 1 17 -6 23
-17 13 -84 11 -96 -3z"/>
<path d="M602 1781 c-5 -3 -16 -26 -25 -50 -12 -37 -12 -47 -2 -58 8 -7 18
-13 23 -13 6 0 13 -6 15 -12 4 -10 6 -10 6 0 1 7 5 11 10 8 15 -10 50 38 59
82 7 30 7 42 -2 43 -57 6 -75 6 -84 0z"/>
<path d="M1397 1778 c-8 -4 -19 -25 -27 -47 -12 -37 -11 -43 5 -61 19 -21 45
-27 45 -10 0 6 9 10 20 10 23 0 37 23 46 77 l6 39 -41 0 c-23 0 -47 -4 -54 -8z"/>
<path d="M1517 1757 c-8 -18 -16 -39 -17 -47 -4 -27 0 -53 7 -47 3 4 12 2 19
-3 8 -8 23 -6 47 6 36 17 49 43 51 94 1 22 -3 25 -46 27 -43 2 -47 0 -61 -30z"/>
<path d="M358 1764 c-37 -11 -48 -20 -57 -46 -14 -39 -15 -35 13 -53 22 -15
27 -15 56 0 32 17 50 49 50 91 0 28 1 27 -62 8z"/>
<path d="M1664 1772 c-6 -4 -14 -19 -17 -34 -4 -14 -10 -33 -13 -41 -8 -22 42
-55 59 -38 16 16 27 14 21 -4 -4 -8 -10 -13 -14 -10 -5 3 -14 -12 -20 -32 -7
-21 -16 -43 -21 -49 -10 -12 25 -54 45 -54 26 0 74 56 81 93 8 41 -12 71 -39
61 -16 -6 -22 7 -8 20 4 4 8 12 8 17 1 5 2 10 4 12 1 1 3 10 5 19 3 18 -9 31
-31 34 -6 1 -20 4 -30 8 -11 3 -24 2 -30 -2z"/>
<path d="M713 1733 c-12 -40 -3 -73 22 -73 18 0 24 -21 13 -43 -38 -73 -2
-128 60 -92 36 22 64 94 46 119 -16 23 -45 27 -66 9 -12 -11 -18 -11 -24 -2
-4 7 -3 10 3 6 14 -9 49 32 57 65 5 23 2 27 -26 37 -56 20 -72 15 -85 -26z"/>
<path d="M1280 1757 c-22 -8 -40 -23 -49 -41 -13 -27 -12 -31 9 -48 12 -10 26
-18 30 -18 12 0 74 44 72 52 0 4 3 21 8 38 8 27 6 30 -13 29 -12 0 -38 -5 -57
-12z"/>
<path d="M1782 1728 c-17 -17 -15 -42 7 -62 14 -13 24 -14 45 -6 33 12 30 25
-10 56 -23 18 -33 21 -42 12z"/>
<path d="M841 1711 c-8 -14 -5 -23 13 -40 27 -25 39 -26 57 -5 12 14 9 20 -16
40 -36 29 -41 29 -54 5z"/>
<path d="M242 1697 c-28 -30 -28 -41 1 -25 23 14 37 28 37 41 0 14 -17 7 -38
-16z"/>
<path d="M1174 1696 c-18 -20 -28 -40 -16 -32 7 4 12 2 12 -3 0 -6 -4 -11 -10
-11 -5 0 -16 -13 -25 -30 -9 -16 -13 -30 -11 -30 3 0 1 -11 -4 -24 -7 -19 -4
-28 15 -44 l23 -20 35 23 c25 17 37 36 45 66 10 39 9 45 -11 61 -11 10 -27 16
-34 14 -7 -3 -13 -1 -13 4 0 6 4 10 9 10 5 0 11 6 14 13 6 16 -15 18 -29 3z"/>
<path d="M231 1649 c-19 -11 -31 -27 -31 -40 0 -11 -4 -29 -10 -39 -7 -13 -5
-24 11 -43 l20 -26 34 21 c19 11 35 21 35 21 0 1 7 20 14 42 23 67 -14 100
-73 64z"/>
<path d="M378 1653 c-30 -12 -38 -21 -47 -59 -11 -43 -9 -56 13 -80 19 -20 85
25 96 65 14 51 13 65 -8 77 -13 9 -27 8 -54 -3z"/>
<path d="M513 1656 c-19 -9 -41 -40 -40 -56 0 -3 -5 -16 -12 -29 -11 -19 -11
-25 0 -32 17 -11 29 -11 28 -1 -5 32 32 72 67 72 31 0 39 17 20 39 -18 20 -31
21 -63 7z"/>
<path d="M643 1649 c-34 -22 -35 -44 -2 -54 10 -4 22 -17 25 -31 7 -28 30 -32
38 -6 3 9 5 19 4 22 -1 3 4 14 10 26 9 17 8 25 -9 43 -23 25 -25 25 -66 0z"/>
<path d="M1307 1654 c-44 -24 -70 -107 -40 -129 24 -18 10 -30 -16 -13 -18 11
-26 10 -55 -6 -21 -11 -37 -29 -41 -45 -16 -63 -16 -70 10 -87 24 -16 27 -15
60 7 28 19 36 33 41 68 5 34 13 47 36 60 36 20 70 47 68 55 -1 4 1 20 5 37 5
22 2 36 -11 50 -20 23 -21 23 -57 3z"/>
<path d="M1451 1657 c-6 -6 -11 -8 -11 -3 0 10 -31 -21 -31 -31 0 -4 -4 -12
-8 -18 -14 -20 -13 -72 3 -78 17 -7 21 -3 29 34 6 24 26 39 71 53 16 6 17 8 4
28 -16 24 -41 31 -57 15z"/>
<path d="M1590 1660 c0 -4 -11 -11 -25 -14 -29 -7 -32 -18 -10 -36 8 -7 15 -9
15 -5 0 5 9 0 20 -10 11 -10 20 -24 20 -30 0 -7 8 -16 17 -19 10 -4 14 -4 11
-1 -4 4 0 26 8 48 14 40 14 43 -7 57 -25 17 -49 22 -49 10z"/>
<path d="M913 1648 c-44 -21 -57 -107 -19 -131 22 -15 25 -14 54 13 27 24 30
32 23 58 -8 28 -29 73 -34 71 -1 0 -12 -5 -24 -11z"/>
<path d="M1850 1653 c-20 -5 -41 -39 -50 -80 -6 -25 -3 -35 14 -50 25 -22 38
-20 72 10 26 23 31 59 11 96 -13 26 -23 31 -47 24z"/>
<path d="M179 1518 c-1 -2 -3 -29 -4 -60 -2 -44 0 -55 11 -51 7 3 13 8 12 11
-1 4 2 22 6 39 6 24 3 37 -8 49 -9 8 -17 14 -17 12z"/>
<path d="M269 1513 c-19 -5 -44 -48 -53 -89 -5 -23 -2 -34 14 -49 20 -18 21
-18 57 1 30 16 39 28 49 66 10 41 10 49 -5 63 -17 15 -31 17 -62 8z"/>
<path d="M410 1513 c-50 -20 -76 -99 -44 -134 22 -24 29 -24 65 2 34 24 55 88
39 119 -11 20 -31 24 -60 13z"/>
<path d="M684 1508 c-7 -11 -14 -138 -7 -138 1 0 14 5 28 12 35 16 60 95 37
121 -17 20 -47 22 -58 5z"/>
<path d="M803 1500 c-27 -16 -40 -39 -31 -52 1 -2 -4 -13 -10 -25 -10 -19 -9
-25 10 -43 12 -11 25 -20 28 -20 13 0 75 46 76 55 0 6 4 25 8 43 14 59 -22 78
-81 42z"/>
<path d="M931 1493 c-17 -17 -31 -37 -32 -45 0 -7 -2 -22 -4 -32 -2 -11 5 -28
17 -38 25 -21 29 -22 52 -5 21 16 29 109 11 134 -11 15 -15 14 -44 -14z"/>
<path d="M1097 1513 c-11 -11 -8 -118 4 -130 8 -8 8 -13 0 -17 -6 -4 -11 -36
-11 -72 0 -68 12 -81 42 -46 31 35 44 111 19 112 -18 1 -42 30 -35 42 5 7 9
18 10 23 1 6 5 21 9 35 4 19 1 31 -13 43 -10 9 -22 14 -25 10z"/>
<path d="M1329 1505 c-17 -9 -32 -31 -42 -59 -14 -42 -14 -45 4 -65 23 -25 23
-25 58 -7 38 20 50 36 56 80 10 61 -21 81 -76 51z"/>
<path d="M1625 1512 c-11 -8 -14 -133 -2 -125 4 2 7 -1 7 -7 0 -22 32 21 43
58 15 51 15 55 -3 69 -17 14 -31 16 -45 5z"/>
<path d="M1728 1497 c-37 -31 -51 -86 -28 -115 10 -11 20 -18 24 -15 3 4 6 1
6 -6 0 -13 9 -7 54 35 30 27 42 89 22 109 -21 21 -47 19 -78 -8z"/>
<path d="M1885 1510 c-23 -9 -48 -36 -51 -55 -1 -7 -5 -21 -8 -32 -4 -12 1
-28 14 -43 19 -21 21 -22 52 -7 32 15 33 18 32 69 -2 88 0 84 -39 68z"/>
<path d="M182 1367 c-10 -13 -10 -30 2 -90 6 -32 10 -36 22 -27 8 7 14 19 14
26 0 8 5 14 10 14 6 0 10 -6 9 -12 -1 -7 3 -24 9 -38 6 -14 11 -20 12 -15 0 6
4 5 8 -2 6 -9 15 -8 40 4 35 17 52 40 62 88 5 24 2 33 -18 46 -19 13 -28 14
-48 5 -13 -6 -24 -15 -24 -19 0 -5 -4 -6 -9 -3 -5 3 -12 -5 -15 -19 -4 -14
-13 -25 -22 -25 -10 0 -12 5 -7 13 14 23 11 36 -12 51 -18 12 -25 13 -33 3z"/>
<path d="M423 1355 c-27 -22 -44 -58 -48 -100 0 -5 6 -15 15 -22 57 -46 138
58 95 123 -19 30 -22 30 -62 -1z"/>
<path d="M710 1363 c-28 -19 -41 -35 -34 -42 2 -2 27 -5 55 -6 44 -1 50 1 47
18 -2 11 -12 26 -23 33 -18 12 -24 11 -45 -3z"/>
<path d="M843 1363 c-18 -9 -33 -20 -33 -25 0 -4 -1 -11 -2 -15 -2 -4 18 -8
44 -9 60 -2 81 17 50 46 -12 11 -22 20 -24 19 -2 0 -18 -8 -35 -16z"/>
<path d="M1210 1349 c-16 -15 -30 -32 -30 -36 0 -4 -4 -25 -9 -45 -7 -29 -6
-35 5 -31 8 3 14 0 14 -6 0 -17 29 -13 65 9 41 25 58 90 31 119 -22 25 -40 22
-76 -10z"/>
<path d="M1372 1369 c-34 -13 -51 -33 -57 -70 -3 -18 -8 -35 -10 -38 -5 -10
19 -39 35 -42 18 -4 61 18 75 38 9 12 12 68 6 104 -2 13 -26 16 -49 8z"/>
<path d="M1636 1361 c-14 -16 -19 -39 -17 -77 1 -17 7 -20 29 -18 15 1 32 2
38 3 7 1 15 17 19 37 10 57 -35 93 -69 55z"/>
<path d="M1763 1357 c-18 -12 -35 -34 -38 -49 -4 -15 -7 -31 -8 -35 -1 -4 20
-8 47 -8 36 -1 54 4 66 17 25 27 22 64 -6 83 -28 18 -22 19 -61 -8z"/>
<path d="M955 1346 c-17 -12 -14 -36 5 -36 13 0 32 38 22 44 -5 3 -17 -1 -27
-8z"/>
<path d="M1876 1338 c-8 -13 -16 -34 -18 -48 -3 -21 1 -25 25 -24 15 1 30 2
35 3 6 1 8 51 3 84 -2 16 -31 6 -45 -15z"/>
<path d="M516 1283 c-20 -21 15 -73 45 -66 24 7 24 25 2 45 -26 22 -39 28 -47
21z"/>
<path d="M325 1217 c-59 -42 -65 -72 -23 -107 33 -29 60 -21 81 23 21 42 17
76 -11 93 -14 9 -24 7 -47 -9z"/>
<path d="M462 1220 c-12 -10 -26 -20 -32 -22 -5 -2 -12 -16 -15 -33 -3 -16 -8
-37 -9 -45 -2 -8 5 -25 16 -37 l20 -21 36 24 c24 16 41 39 50 66 13 40 13 41
-14 64 -15 13 -28 24 -28 24 -1 -1 -11 -9 -24 -20z"/>
<path d="M1117 1216 c-24 -20 -27 -28 -27 -84 0 -75 8 -77 78 -26 2 1 10 23
17 48 14 45 13 46 -13 65 -27 19 -27 19 -55 -3z"/>
<path d="M1256 1220 c-10 -11 -22 -18 -26 -15 -9 6 -39 -91 -31 -101 20 -29
39 -34 67 -22 36 15 41 23 55 72 9 34 8 41 -12 62 -27 28 -28 28 -53 4z"/>
<path d="M210 1220 c0 -6 11 -23 25 -38 21 -22 25 -24 25 -9 0 27 -19 57 -35
57 -8 0 -15 -5 -15 -10z"/>
<path d="M1377 1207 c-14 -12 -31 -39 -37 -61 -11 -34 -10 -40 8 -58 18 -18
22 -19 48 -5 27 14 29 19 30 76 0 69 -10 80 -49 48z"/>
<path d="M583 1208 c-19 -9 -30 -30 -39 -76 -1 -8 -5 -16 -8 -19 -6 -7 38 -43
52 -43 5 0 15 7 22 15 7 8 16 13 20 10 4 -2 12 6 18 18 23 49 23 59 -5 83 -31
27 -30 27 -60 12z"/>
<path d="M679 1128 c-10 -18 -8 -24 11 -40 26 -21 31 -22 54 -5 16 12 16 15
-10 40 -32 33 -40 33 -55 5z"/>
<path d="M378 1082 c-26 -5 -22 -18 11 -41 26 -19 41 -19 41 -1 0 16 -37 46
-52 42z"/>
<path d="M492 1070 c-18 -11 -37 -32 -43 -47 -10 -28 1 -43 52 -73 41 -23 79
89 42 122 -18 16 -21 16 -51 -2z"/>
<path d="M613 1060 c-18 -11 -33 -23 -34 -27 -1 -9 -8 -47 -11 -64 -4 -16 51
-56 60 -44 4 6 20 19 35 29 16 9 26 20 24 23 -3 2 -1 17 5 33 11 34 -4 70 -30
70 -9 0 -32 -9 -49 -20z"/>
<path d="M747 1057 c-15 -12 -29 -31 -31 -42 -3 -11 -7 -27 -11 -36 -4 -11 2
-25 16 -37 22 -21 22 -21 60 -1 22 11 40 26 40 34 2 24 4 29 12 42 8 12 -33
63 -50 63 -4 0 -20 -10 -36 -23z"/>
<path d="M1140 1064 c-48 -30 -62 -105 -24 -130 18 -13 24 -12 46 5 14 11 28
18 31 15 2 -3 10 18 17 46 18 74 -11 101 -70 64z"/>
<path d="M1285 1070 c-29 -11 -41 -29 -54 -75 -10 -36 -9 -42 11 -57 20 -15
25 -15 52 -1 39 20 50 33 55 63 2 14 4 32 6 40 5 32 -30 47 -70 30z"/>
<path d="M1542 1059 c-12 -5 -23 -12 -23 -16 -7 -45 -6 -100 2 -109 11 -13 49
-7 49 8 0 5 4 7 10 3 5 -3 16 5 24 17 20 33 29 85 16 93 -18 11 -54 13 -78 4z"/>
<path d="M1663 1044 c-12 -13 -23 -30 -23 -38 0 -8 -2 -21 -5 -28 -3 -8 4 -24
15 -36 l21 -23 40 23 c21 12 40 26 40 32 1 6 3 21 4 32 1 12 5 26 9 32 8 14
-9 24 -47 27 -21 2 -37 -4 -54 -21z"/>
<path d="M1809 1056 c-38 -31 -46 -100 -14 -122 18 -12 25 -11 57 11 28 19 38
33 43 65 4 23 5 44 2 47 -11 10 -74 10 -88 -1z"/>
<path d="M1374 1014 c-20 -53 -12 -79 27 -79 23 0 24 3 24 60 0 47 -4 60 -17
63 -11 2 -21 -11 -34 -44z"/>
<path d="M1913 995 c-9 -41 -8 -47 8 -56 11 -5 19 -6 20 -2 0 4 2 29 4 56 3
62 -18 63 -32 2z"/>
<path d="M850 1001 c-15 -29 -1 -66 29 -74 38 -10 44 25 12 64 l-28 33 -13
-23z"/>
<path d="M540 927 c0 -7 9 -20 20 -30 18 -15 21 -16 27 -2 3 9 -2 22 -13 30
-24 18 -34 19 -34 2z"/>
<path d="M648 918 c-44 -25 -47 -46 -17 -94 24 -39 20 -37 53 -23 35 16 54 93
30 120 -21 23 -21 23 -66 -3z"/>
<path d="M779 916 c-20 -14 -36 -30 -37 -38 0 -7 -3 -27 -7 -44 -13 -67 87
-65 113 3 24 62 23 70 -2 87 -31 20 -25 21 -67 -8z"/>
<path d="M1169 917 c-43 -29 -65 -92 -41 -119 18 -21 47 -23 68 -5 37 31 42
38 48 73 6 27 3 41 -10 55 -22 24 -24 24 -65 -4z"/>
<path d="M1310 921 c-26 -14 -38 -29 -47 -60 -21 -74 18 -103 82 -61 17 11 27
20 23 20 -4 0 -1 15 6 33 16 40 15 49 -6 70 -20 21 -16 21 -58 -2z"/>
<path d="M1580 918 l-35 -23 45 -5 c25 -3 45 -10 45 -17 0 -14 15 -30 16 -17
0 5 2 18 4 29 4 18 -20 55 -34 55 -3 0 -22 -10 -41 -22z"/>
<path d="M1713 920 c-18 -9 -30 -20 -26 -24 3 -3 0 -6 -7 -6 -7 0 -11 -3 -7
-6 3 -3 1 -19 -5 -35 -8 -24 -7 -34 7 -49 21 -23 32 -24 67 -8 16 8 31 27 38
48 6 19 13 40 16 46 5 12 -29 55 -42 53 -5 -1 -24 -9 -41 -19z"/>
<path d="M1852 920 c-31 -19 -41 -33 -46 -62 -1 -7 -5 -18 -9 -25 -4 -6 0 -18
9 -27 19 -19 9 -43 -11 -26 -32 27 -109 -50 -100 -99 2 -9 4 -21 4 -27 2 -23
43 -23 75 -1 32 23 35 28 43 90 5 29 10 37 27 37 27 1 65 30 70 55 2 11 7 33
11 48 6 21 3 31 -11 42 -24 18 -23 18 -62 -5z"/>
<path d="M899 904 c-7 -9 -19 -31 -25 -50 -14 -41 4 -74 41 -74 31 0 59 41 50
71 -7 21 -13 46 -14 62 -2 13 -38 7 -52 -9z"/>
<path d="M1090 884 c0 -21 4 -33 10 -29 6 3 10 19 10 36 0 16 -4 29 -10 29 -5
0 -10 -16 -10 -36z"/>
<path d="M1415 892 c-5 -4 -12 -14 -14 -22 -12 -48 -12 -61 3 -75 9 -9 17 -13
17 -8 1 6 5 114 4 113 0 0 -4 -4 -10 -8z"/>
<path d="M186 832 c-8 -13 23 -52 40 -52 27 0 73 33 74 53 0 10 -108 9 -114
-1z"/>
<path d="M325 829 c-9 -13 23 -49 43 -49 21 0 73 40 67 51 -8 13 -102 11 -110
-2z"/>
<path d="M158 729 c-2 -44 1 -63 10 -67 16 -6 21 -1 28 29 3 13 8 34 11 47 5
21 -17 51 -39 52 -3 0 -8 -28 -10 -61z"/>
<path d="M268 773 c-28 -18 -62 -92 -49 -109 20 -28 40 -35 63 -23 35 19 45
32 57 73 18 66 -15 93 -71 59z"/>
<path d="M399 767 c-45 -38 -58 -96 -28 -123 18 -16 21 -16 54 2 39 21 37 18
41 59 8 81 -18 105 -67 62z"/>
<path d="M690 783 c-8 -3 -18 -11 -22 -17 -9 -13 -10 -82 -2 -113 5 -19 9 -21
27 -11 33 17 44 32 54 69 17 60 -7 91 -57 72z"/>
<path d="M808 772 c-37 -23 -56 -96 -32 -123 26 -29 39 -26 88 18 8 7 17 31
21 55 6 34 4 44 -11 55 -22 16 -32 15 -66 -5z"/>
<path d="M1090 727 c0 -72 7 -86 27 -57 23 33 26 91 6 106 -29 22 -33 17 -33
-49z"/>
<path d="M1210 782 c0 -5 -11 -14 -25 -20 -15 -7 -25 -20 -25 -32 0 -12 -5
-30 -10 -40 -8 -15 -5 -23 12 -40 27 -25 36 -25 69 3 44 36 57 100 26 122 -24
16 -47 20 -47 7z"/>
<path d="M1333 771 c-28 -18 -37 -36 -49 -98 -1 -6 7 -19 17 -29 18 -16 21
-16 54 2 52 28 75 113 36 134 -25 13 -20 13 -58 -9z"/>
<path d="M1637 773 c-3 -10 -5 -39 -5 -65 0 -35 4 -48 14 -48 15 0 39 48 29
58 -2 3 0 11 6 19 9 10 8 18 -6 33 -22 25 -32 25 -38 3z"/>
<path d="M1875 767 c-16 -12 -32 -29 -34 -37 -2 -8 -6 -26 -10 -40 -8 -29 15
-58 43 -54 25 3 66 32 67 47 1 6 2 26 4 42 3 35 -10 65 -28 65 -7 -1 -25 -11
-42 -23z"/>
<path d="M948 768 c-18 -6 -31 -20 -37 -41 -5 -18 -11 -39 -15 -47 -3 -9 4
-22 19 -33 41 -29 60 -7 61 71 0 34 0 62 0 61 -1 0 -13 -5 -28 -11z"/>
<path d="M297 631 c-15 -9 -30 -27 -34 -41 -3 -14 -9 -29 -13 -35 -12 -16 -3
-45 16 -60 15 -11 24 -10 51 3 26 12 37 26 47 61 10 33 10 50 3 59 -20 25 -42
29 -70 13z"/>
<path d="M709 627 c-21 -14 -39 -37 -46 -60 -14 -42 -11 -57 16 -74 30 -19 82
21 97 74 11 38 10 43 -10 62 l-23 21 -34 -23z"/>
<path d="M1231 629 c-17 -10 -35 -29 -40 -42 -22 -58 -22 -65 0 -86 l22 -20
38 21 c28 16 39 29 45 57 4 20 8 41 9 46 2 6 -7 18 -20 27 -21 16 -24 16 -54
-3z"/>
<path d="M1653 635 c-12 -8 -20 -26 -21 -44 0 -16 -8 -43 -16 -59 -14 -27 -14
-31 -1 -42 12 -10 19 -10 33 4 10 9 24 16 30 16 18 0 41 91 28 112 -15 25 -31
29 -53 13z"/>
<path d="M165 630 c-9 -14 3 -112 16 -124 27 -27 74 89 48 120 -13 16 -55 19
-64 4z"/>
<path d="M428 625 c-17 -10 -31 -29 -37 -53 -14 -48 -14 -45 8 -71 19 -21 21
-22 51 -6 29 15 30 19 23 53 -4 20 -7 49 -6 65 1 31 -2 32 -39 12z"/>
<path d="M838 625 c-17 -10 -31 -29 -37 -53 -14 -48 -14 -52 4 -72 16 -17 70
-16 59 1 -3 5 2 9 10 9 18 0 33 25 41 70 10 55 -23 74 -77 45z"/>
<path d="M1102 631 c-16 -9 -14 -95 3 -117 9 -13 14 -13 33 5 13 11 23 22 22
25 -1 4 1 20 5 37 10 46 -25 75 -63 50z"/>
<path d="M1353 623 c-39 -36 -51 -99 -22 -126 17 -16 21 -16 49 -2 43 22 51
46 41 133 -2 18 -45 15 -68 -5z"/>
<path d="M1755 616 c-14 -15 -24 -30 -20 -35 3 -5 1 -12 -5 -16 -16 -10 -12
-40 9 -64 l19 -22 36 22 c41 24 68 88 49 117 -17 28 -59 27 -88 -2z"/>
<path d="M1915 630 c-28 -11 -43 -30 -49 -63 -2 -15 -7 -31 -11 -36 -3 -6 4
-19 16 -30 23 -21 48 -18 64 8 10 17 15 131 6 130 -3 0 -15 -4 -26 -9z"/>
<path d="M946 603 c-3 -10 -5 -20 -5 -23 0 -3 -4 -17 -10 -31 -13 -35 8 -70
27 -46 11 13 17 63 13 105 -2 18 -19 15 -25 -5z"/>
<path d="M202 488 c-17 -17 -15 -22 14 -58 20 -24 29 -28 35 -18 14 22 10 60
-8 74 -22 17 -26 17 -41 2z"/>
<path d="M324 481 c-38 -23 -48 -38 -50 -72 -2 -29 37 -59 69 -53 24 3 46 33
47 61 0 12 5 25 11 28 7 5 2 16 -12 31 -27 29 -26 29 -65 5z"/>
<path d="M453 477 c-29 -19 -39 -39 -49 -95 -3 -16 23 -42 43 -42 8 0 28 9 43
20 25 18 35 40 46 98 2 11 -33 43 -46 41 -3 0 -19 -10 -37 -22z"/>
<path d="M588 476 c-15 -11 -33 -39 -40 -61 -13 -37 -12 -42 4 -59 16 -17 22
-18 57 -6 40 13 47 24 58 89 4 26 1 36 -13 45 -29 16 -38 15 -66 -8z"/>
<path d="M724 477 c-43 -29 -60 -97 -31 -125 17 -18 22 -18 47 -6 30 15 53 39
56 58 1 6 5 23 9 37 5 21 2 30 -16 43 -28 20 -27 20 -65 -7z"/>
<path d="M870 483 c-36 -25 -54 -53 -54 -87 -1 -27 2 -31 22 -28 13 1 30 9 38
17 8 8 20 18 27 22 7 5 20 18 30 30 18 20 18 22 -4 42 -27 25 -28 25 -59 4z"/>
<path d="M1132 492 c-16 -11 -6 -40 22 -65 21 -19 32 -14 38 18 2 12 -5 27
-18 38 -25 20 -25 19 -42 9z"/>
<path d="M1243 476 c-25 -24 -41 -63 -36 -87 2 -9 15 -21 28 -27 39 -18 71 2
85 54 11 39 11 47 -5 64 -21 23 -44 22 -72 -4z"/>
<path d="M1388 482 c-29 -18 -48 -51 -48 -82 0 -11 -6 -20 -12 -20 -17 -1 33
-39 50 -40 27 0 69 40 77 72 4 18 9 38 10 45 3 10 -37 45 -47 42 -2 0 -15 -8
-30 -17z"/>
<path d="M1522 480 c-21 -13 -35 -32 -43 -60 -16 -53 -4 -76 40 -74 39 2 63
27 76 78 9 34 8 44 -6 56 -22 21 -32 21 -67 0z"/>
<path d="M1678 493 c-10 -2 -18 -9 -18 -15 0 -6 -3 -8 -7 -5 -18 18 -56 -79
-42 -106 11 -19 30 -14 77 22 45 33 58 68 36 92 -10 11 -20 18 -23 18 -3 -1
-14 -3 -23 -6z"/>
<path d="M1811 493 c-26 -10 -56 -48 -55 -68 3 -51 14 -66 50 -63 41 3 48 10
62 61 9 33 8 40 -11 57 -22 21 -24 22 -46 13z"/>
<path d="M1918 473 c-10 -2 -18 -9 -18 -14 0 -16 -1 -18 -15 -53 -13 -30 -13
-35 1 -40 22 -8 54 -7 55 2 5 35 5 112 0 111 -3 -1 -14 -3 -23 -6z"/>
<path d="M497 343 c-26 -7 -10 -23 23 -23 22 0 28 4 24 15 -6 15 -14 17 -47 8z"/>
<path d="M626 335 c-4 -11 1 -15 19 -15 29 0 41 15 19 24 -24 9 -31 7 -38 -9z"/>
<path d="M1300 346 c0 -2 7 -6 15 -10 8 -3 15 -1 15 4 0 6 -7 10 -15 10 -8 0
-15 -2 -15 -4z"/>
<path d="M1420 335 c-11 -13 -7 -15 24 -15 37 0 48 13 20 24 -23 9 -30 8 -44
-9z"/>
</g>
</svg>
